<?xml version="1.0" encoding="UTF-8" standalone="no"?>
<!-- Created with Inkscape (http://www.inkscape.org/) -->
<svg id="svg3387" xmlns:rdf="http://www.w3.org/1999/02/22-rdf-syntax-ns#" xmlns="http://www.w3.org/2000/svg" height="640" viewBox="0 0 640 640" width="640" version="1.1" xmlns:cc="http://creativecommons.org/ns#" xmlns:dc="http://purl.org/dc/elements/1.1/">
 <metadata id="metadata3393">
  <rdf:RDF>
   <cc:Work rdf:about="">
    <dc:format>image/svg+xml</dc:format>
    <dc:type rdf:resource="http://purl.org/dc/dcmitype/StillImage"/>
    <dc:title/>
   </cc:Work>
  </rdf:RDF>
 </metadata>
 <path id="path3413" d="m0.0000048079 320v-320h320 320v320 320h-320-320v-320z" fill="#fdfdfd"/>
 <path id="path3411" d="m240.52 544.28c-31.41-4.28-64.19-17.31-93.64-37.25-16.38-11.07-42.87-37.87-53.933-54.55-27.845-41.98-42.283-95.36-38.114-140.92 7.139-78.02 52.147-145.53 119.61-179.39 27.42-13.76 63-22.24 92.44-22.04l12.5 0.088-15 2.2755c-21.429 3.2508-36.574 7.0161-53.75 13.363-57.484 21.241-100.22 62.767-124.37 120.85-4.2423 10.202-11.237 32.634-11.249 36.075-0.0018 0.49861 1.4397 0.35798 3.2032-0.3125s10.118-1.2191 18.565-1.2191c13.905 0 15.758 0.26897 19.576 2.8422 2.3197 1.5632 5.4966 4.7402 7.0598 7.0598 2.7673 4.1064 2.8422 5.0381 2.8422 35.345 0 34.666-0.19853 35.664-8.3339 41.876-4.3524 3.3233-5.3636 3.5231-19.807 3.9124-11.661 0.31436-16.307-0.0434-19.864-1.5295-4.3281-1.8084-4.599-1.7939-3.9969 0.21468 0.35522 1.185 1.7766 6.3733 3.1586 11.53 4.7729 17.807 9.3428 29.841 17.474 46.014 28.134 55.955 86.268 98.827 152.08 112.15 8.3765 1.696 18.708 3.0837 22.959 3.0837 4.8345 0 7.4399 0.46815 6.9567 1.25-1.076 1.741-21.186 1.3417-36.352-0.72185zm-138.41-185.75c2.86-2.69 2.89-2.99 2.89-32.3 0-27.479-0.16927-29.742-2.3744-31.737-3.8263-3.4628-10.04-2.9644-13.523 1.0846-2.9803 3.4649-2.9809 3.4718-2.6042 32.184 0.37344 28.463 0.40303 28.739 3.3278 31.106 3.8971 3.153 8.7109 3.0235 12.281-0.33036zm165.39 174.36c-10.409-0.78416-11.25-1.2356-11.25-6.0383v-4.3512h17.5 17.5v5.625 5.625l-9.0625-0.21839c-4.9844-0.12012-11.594-0.40907-14.688-0.64215zm-33.1-5.5334c-15.076-3.6749-14.72-5.0047 1.2297-4.5888 13.702 0.35733 13.72 0.36188 13.733 3.4828 0.0165 4.046-2.2226 4.2115-14.962 1.106zm-38.15-13.27c-1.0312-0.39289-6.7969-3.4781-12.812-6.8559l-10.938-6.1416v-10.581-10.581l17.188 0.34777 17.188 0.34778 0.34778 17.188 0.34777 17.188-4.7228-0.0987c-2.5975-0.0542-5.5665-0.42008-6.5978-0.81296zm17.777-16.241 0.348-17.222 17.155-0.34756c20.353-0.41236 18.865-2.032 18.247 19.852l-0.40202 14.246-17.848 0.34704-17.848 0.34703 0.348-17.222zm42.5-0.0345 0.34778-17.188 17.188-0.34777 17.188-0.34778v17.535 17.535h-17.535-17.535l0.34777-17.188zm42.223 0.3125v-16.875h17.5 17.5v16.875 16.875h-17.5-17.5v-16.875zm-143.44-9.5385c-4.2969-3.4767-7.8125-6.8309-7.8125-7.4538 0-0.62295 3.9375-1.1326 8.75-1.1326h8.75v7.5c0 4.125-0.42188 7.4792-0.9375 7.4538-0.51563-0.0254-4.4531-2.8907-8.75-6.3674zm59.271-15.67c-0.45834-0.45832-0.83334-8.3333-0.83334-17.5v-16.667h17.358 17.358l0.84592 5.641c0.89885 5.9939 0.72764 25.174-0.24812 27.796-0.42492 1.1419-5.0314 1.5625-17.114 1.5625-9.0931 0-16.908-0.375-17.366-0.83334zm84.17-16.67v-17.5h17.5 17.5v17.5 17.5h-17.5-17.5v-17.5zm84.583 16.667c-0.45-0.46-0.83-8.34-0.83-17.5v-16.667h17.5 17.5v17.5 17.5h-16.667c-9.1667 0-17.042-0.375-17.5-0.83334zm-249.39-4.5879-4.0429-4.1712 0.36023-12.391 0.36022-12.391 17.188-0.34777 17.188-0.34778v16.91 16.91h-13.505-13.505l-4.0429-4.1712zm382.31-17.71v-18.125h18.75 18.75v18.125 18.125h-18.75-18.75v-18.125zm-397.58 0.33475c-3.5621-4.7224-7.4226-10.763-7.4226-11.615 0-0.32714 2.5312-0.59479 5.625-0.59479h5.625v8.125c0 4.4688-0.17547 8.125-0.38993 8.125s-1.7613-1.8181-3.4375-4.0402zm-17.245-27.379c-4.2174-7.6767-11.428-24.241-11.428-26.252 0-0.59293 7.3125-1.0781 16.25-1.0781h16.25v17.5 17.5l-8.4375-0.0149-8.4375-0.0149-4.1972-7.6398zm28.58-9.82v-17.5h17.5 17.5v17.5 17.5h-17.5-17.5v-17.5zm42.5 0v-17.5h17.5 17.5v17.5 17.5h-17.5-17.5v-17.5zm42.777 0.3125 0.34778-17.188 16.562-0.21551 16.562-0.21552v17.403 17.403h-16.91-16.91l0.34777-17.188zm167.22-0.31v-17.5h17.292c9.5104 0 17.526 0.2325 17.812 0.51666 0.28646 0.28416 0.34978 8.1592 0.14069 17.5l-0.38014 16.983h-17.432-17.432v-17.5zm42.5 0v-17.5h17.5 17.5v17.5 17.5h-17.5-17.5v-17.5zm-279.12-42.04c-1.423-1.423-1.0176-69.292 0.44539-74.56 1.5868-5.7141 7.3436-12.549 12.299-14.601 2.3982-0.99338 9.1344-1.3648 19.796-1.0915 15.372 0.39402 16.379 0.58092 20.634 3.8302 8.047 6.1446 8.5605 9.309 8.1683 50.334l-0.34654 36.25-10.312 0.36305-10.312 0.36305v-20.051-20.051h-9.3433-9.3432l-0.34425 19.688-0.34424 19.688-10.058 0.35894c-5.5318 0.19741-10.454-0.037-10.938-0.52084zm40.37-61.64c0-9.9106-0.33124-11.565-2.9167-14.571-2.1734-2.5267-4.0026-3.36-7.1778-3.2697-6.9988 0.19899-8.6556 3.5074-8.6556 17.285v11.737h9.375 9.375v-11.18zm50 21.805v-40.625h-10-10v-5-5h30.625 30.625v5 5h-10-10v40.625 40.625h-10.625-10.625v-40.625zm60.395 38.256c-5.589-2.6016-8.276-6.5496-9.66-14.193l-0.84871-4.6875h5.6816c4.2913 0 5.6816 0.47274 5.6816 1.9318 0 3.5341 5.8301 8.0682 10.374 8.0682 5.4142 0 8.3756-3.2362 8.3756-9.153 0-3.9162-1.3154-6.0607-9.0625-14.775-15.906-17.892-18.374-21.193-19.799-26.487-2.9682-11.023 1.8465-23.408 10.741-27.628 3.6526-1.7332 7.1374-2.096 16.889-1.7579 11.071 0.38386 12.617 0.73527 15.628 3.551 4.4319 4.1446 6.8541 9.0072 6.8541 13.76 0 3.7963-0.11988 3.8753-5.3125 3.4996-4.3327-0.31348-5.383-0.87901-5.6948-3.0663-1.2812-8.9871-16.396-9.421-18.349-0.52675-1.0952 4.9862 0.29293 7.2242 14.25 22.974 6.5872 7.4332 12.661 14.746 13.497 16.25 2.1802 3.921 2.0099 18.959-0.2644 23.357-1.0305 1.9928-3.9384 5.1993-6.4619 7.1254-4.1356 3.1566-5.708 3.5362-15.939 3.8471-9.1348 0.27766-12.372-0.1302-16.58-2.0893zm60.86-43.26v-45.625h25.625 25.625v5 5h-15-15v15 15h10 10v5.625 5.625h-10-10v14.375 14.375h15 15v5.625 5.625h-25.625-25.625v-45.625zm70.262 6.3394c0.34744-37.604 0.4749-39.437 2.9779-42.812 1.4382-1.9398 4.4745-4.7925 6.7474-6.3394 3.7703-2.566 5.5789-2.8125 20.638-2.8125s16.867 0.24647 20.638 2.8125c2.2728 1.5469 5.3091 4.3996 6.7474 6.3394 2.5032 3.3762 2.6305 5.2078 2.9781 42.864l0.36319 39.337-10.363-0.36387-10.363-0.36387-0.34424-19.688-0.34425-19.688h-9.3432-9.3433v20 20h-10.675-10.675l0.36297-39.286zm39.74-23.12c0-6.1313-0.36544-12.1-0.81208-13.264-1.2225-3.1858-7.8274-5.5684-11.532-4.1599-5.3445 2.032-6.3236 4.6481-6.3661 17.009l-0.0398 11.562h9.375 9.375v-11.148zm100.52-47.5c-0.29-0.28-0.52-8.58-0.52-18.43v-17.917h18.75 18.75v18.061 18.061l-18.233 0.37673c-10.028 0.2072-18.466 0.14234-18.75-0.14412zm-479.27-0.58c0-1.6181 6.9607-18.498 10.645-25.813l4.3867-8.7109h9.3593 9.3593v17.5 17.5h-16.875c-9.2812 0-16.875-0.21428-16.875-0.47618zm41.25-17.02v-17.5h17.5 17.5v17.5 17.5h-17.5-17.5v-17.5zm42.5 0v-17.5h17.5 17.5v17.5 17.5h-17.5-17.5v-17.5zm41.809 15.904c-0.35189-0.917-0.48099-8.6673-0.28688-17.223l0.35293-15.556h17.5 17.5v16.875 16.875l-17.213 0.34794c-13.442 0.27171-17.353-0.0174-17.853-1.3193zm84.44-15.9v-17.5h17.5 17.5v17.5 17.5h-17.5-17.5v-17.5zm43.045 15.868c-0.3444-0.89751-0.46738-8.6319-0.27327-17.188l0.35-15.56 16.56-0.34 16.56-0.35v17.536 17.536h-16.289c-12.247 0-16.445-0.4049-16.915-1.6318zm83.2-15.87v-17.5h17.5 17.5v17.5 17.5h-17.5-17.5v-17.5zm91.25-41.875v-18.125h18.75 18.75v18.125 18.125h-18.75-18.75v-18.125zm-406.76 15.312c2.5245-4.4209 11.998-17.188 12.756-17.19 0.48089-0.001 0.68927 4.2172 0.46308 9.375l-0.41 9.38h-6.85c-5.1225 0-6.625-0.39404-5.9578-1.5625zm63.005-15.973v-17.535l17.188 0.34777 17.188 0.34778 0.34778 17.188 0.34777 17.188h-17.535-17.535v-17.535zm41.527 0.34778 0.34778-17.188 16.778-0.35029c12.172-0.25412 17.036 0.0681 17.72 1.174 1.0643 1.7221 1.3679 27.998 0.36235 31.364-0.59 1.95-2.57 2.19-18.11 2.19h-17.451l0.34778-17.188zm-70.069-25.216c0.5361-1.4842 18.783-16.346 20.069-16.346 0.53487 0 0.9725 3.9375 0.9725 8.75v8.75h-10.729c-6.0221 0-10.546-0.50606-10.312-1.1535zm70.659 0.35386c-0.48-0.47-0.87-8.37-0.87-17.56v-16.701l17.812 0.34681 17.812 0.34683v16.875 16.875l-16.945 0.3462c-9.32 0.19041-17.336-0.044-17.812-0.52084zm42.466-0.0337c-0.45834-0.45832-0.83334-8.3333-0.83334-17.5v-16.667h17.5 17.5v17.5 17.5h-16.667c-9.1667 0-17.042-0.375-17.5-0.83334zm-84.318-11.822 0.35941-11.406 10-5.4537c8.1807-4.4615 11.194-5.4566 16.562-5.4695l6.5625-0.0157v16.875 16.875h-16.922-16.922l0.3594-11.406zm42.23-30.91c0-0.62861 6.3281-2.8437 14.062-4.9224 20.71-5.566 19.591-5.4502 20.428-2.1135 1.8162 7.2362 1.3362 7.4532-17.319 7.831-9.79 0.19-17.17-0.15-17.17-0.8zm41.25-4.4788c0-3.0532 0.4672-5.84 1.0382-6.1929 0.57103-0.35291 8.446-1.0327 17.5-1.5107l16.462-0.86905v7.0619 7.0619h-17.5-17.5v-5.5512zm42.5-0.86028v-6.4115l9.0625 0.86833c4.9844 0.47759 12.859 1.7204 17.5 2.7617 8.0579 1.8082 8.4375 2.0576 8.4375 5.5432v3.6498h-17.5-17.5v-6.4115z" fill="#ddc6b9"/>
 <path id="path3409" d="m250 544.83c-27.4-2.81-52.91-10.41-77.5-23.09-33.82-17.44-61.31-41.93-81.104-72.26-25.356-38.85-39.892-93.23-36.263-135.66 6.115-71.49 44.541-136.2 101.75-171.35 11.998-7.3722 31.5-16.49 45-21.039 19.501-6.5715 49.506-11.612 66.875-11.233 4.4688 0.0974 6.4375 0.38643 4.375 0.64237-34.787 4.3167-57.808 10.902-85 24.316-53.798 26.539-95.248 77.849-111.31 137.79-1.6848 6.2886-3.0647 11.546-3.0664 11.682-0.0018 0.1368 1.9475-0.56632 4.3317-1.5625 2.8997-1.2116 8.917-1.8112 18.175-1.8112 15.778 0 21.365 1.9086 26.448 9.0342 2.8268 3.9632 2.9302 5.0068 3.3148 33.466 0.24231 17.93-0.11013 31.093-0.90469 33.785-1.7323 5.8697-8.6681 12.394-14.652 13.782-7.3453 1.7042-25.449 1.3012-31.042-0.69092-2.7237-0.9701-5.1409-1.575-5.3716-1.3443-1.0179 1.0179 5.4983 23.854 10.536 36.921 20.079 52.088 56.809 91.74 108.01 116.6 22.248 10.803 57.04 20.946 71.844 20.946 2.9775 0 5.7613 0.5625 6.1862 1.25 0.90126 1.4583-5.2142 1.4078-20.625-0.17012zm-146.34-186.87c2.4462-3.1098 2.5907-4.8589 2.5907-31.346v-28.053l-3.8001-3.8001c-3.1803-3.1803-4.4545-3.6737-7.8125-3.0251-8.0903 1.5627-8.3874 2.7984-8.3874 34.888 0 27.894 0.08947 28.939 2.7179 31.737 3.9433 4.1974 11.231 3.9988 14.691-0.40051zm163.84 174.93c-10.409-0.78416-11.25-1.2356-11.25-6.0383v-4.3512h17.5 17.5v5.625 5.625l-9.0625-0.21839c-4.9844-0.12012-11.594-0.40907-14.688-0.64215zm-33.1-5.5557c-14.76-3.56-14.54-4.83 0.83-4.83 12.53 0 13.267 0.14359 13.94 2.7169 1.4412 5.511 0.0871 5.7051-14.769 2.1169zm-38.15-13.24c-1.0312-0.39289-6.7969-3.4781-12.812-6.8559l-10.938-6.1416v-10.581-10.581l17.188 0.34777 17.188 0.34778 0.34778 17.188 0.34777 17.188-4.7228-0.0987c-2.5975-0.0542-5.5665-0.42008-6.5978-0.81296zm17.777-16.241 0.348-17.222 17.124-0.34736 17.124-0.34737 0.78292 4.1734c0.43061 2.2953 0.59966 10.045 0.37568 17.222l-0.40724 13.049-17.848 0.34704-17.848 0.34703 0.348-17.222zm42.5-0.0345 0.34778-17.188 17.188-0.34777 17.188-0.34778v17.535 17.535h-17.535-17.535l0.34777-17.188zm42.223 0.34777v-16.91h17.536 17.536l-0.34877 16.562-0.34879 16.562-17.188 0.34777-17.188 0.34778v-16.91zm-143.44-9.5738c-4.2969-3.4767-7.8125-6.8309-7.8125-7.4538 0-0.62295 3.9375-1.1326 8.75-1.1326h8.75v7.5c0 4.125-0.42188 7.4792-0.9375 7.4538-0.51563-0.0254-4.4531-2.8907-8.75-6.3674zm59.271-15.67c-0.45834-0.45832-0.83334-8.3333-0.83334-17.5v-16.667h17.358 17.358l0.84592 5.641c0.89885 5.9939 0.72764 25.174-0.24812 27.796-0.42492 1.1419-5.0314 1.5625-17.114 1.5625-9.0931 0-16.908-0.375-17.366-0.83334zm84.17-16.68v-17.5h17.5 17.5v17.5 17.5h-17.5-17.5v-17.5zm84.583 16.667c-0.45-0.46-0.83-8.34-0.83-17.5v-16.667h17.5 17.5v17.5 17.5h-16.667c-9.1667 0-17.042-0.375-17.5-0.83334zm-249.5-4.8854c-3.8895-4.4299-3.9205-4.5739-3.567-16.562l0.36-12.09 17.19-0.35 17.19-0.35v16.91 16.91h-13.621-13.621l-3.9236-4.4688zm382.42-17.41v-18.125h18.75 18.75v18.125 18.125h-18.75-18.75v-18.125zm-397.58 0.33475c-3.5621-4.7224-7.4226-10.763-7.4226-11.615 0-0.32714 2.5312-0.59479 5.625-0.59479h5.625v8.125c0 4.4688-0.17547 8.125-0.38993 8.125s-1.7613-1.8181-3.4375-4.0402zm-17.245-27.379c-4.2174-7.6767-11.428-24.241-11.428-26.252 0-0.59293 7.3125-1.0781 16.25-1.0781h16.25v17.5 17.5l-8.4375-0.0149-8.4375-0.0149-4.1972-7.6398zm28.58-9.82v-17.5h17.5 17.5v17.5 17.5h-17.5-17.5v-17.5zm42.5 0v-17.5h17.5 17.5v17.5 17.5h-17.5-17.5v-17.5zm42.777 0.3125 0.34778-17.188 16.562-0.21551 16.562-0.21552v17.403 17.403h-16.91-16.91l0.34777-17.188zm167.22-0.31v-17.5h17.292c9.5104 0 17.526 0.2325 17.812 0.51666 0.28646 0.28416 0.34978 8.1592 0.14069 17.5l-0.38014 16.983h-17.432-17.432v-17.5zm42.5 0v-17.5h17.5 17.5v17.5 17.5h-17.5-17.5v-17.5zm-277.88-42.04c-0.48117-0.48115-0.87484-17.43-0.87484-37.665 0-41.082 0.24621-42.493 8.5161-48.801 4.2987-3.2788 4.8645-3.3669 21.607-3.3669 19.09 0 21.185 0.72474 27.064 9.3623 2.7668 4.0653 2.8125 4.7599 2.8125 42.75v38.618l-9.6875-0.36508-9.6875-0.36508-0.34087-20-0.34088-20-9.6591 0.226-9.6591 0.22599-0.34265 19.917-0.34265 19.917-9.095 0.21088c-5.0022 0.116-9.4887-0.1828-9.9698-0.66396zm39.13-61.61c0-13.163-0.43454-14.616-5.0894-17.023-5.0814-2.6277-7.1373-2.2944-11.257 1.8251-3.5017 3.5017-3.6538 4.1262-3.6538 15v11.346h10 10v-11.148zm50.92 61.65c-0.51-0.5-0.92-18.82-0.92-40.71v-39.792h-10-10v-5-5h30.625 30.625v5 5h-9.9827-9.9827l-0.32983 40.312-0.32981 40.312-9.3928 0.39884c-5.166 0.21935-9.8067-0.015-10.312-0.52084zm63.518-0.58147c-7.95-1.99-13.19-8.39-13.19-16.11 0-3.6141 0.25969-3.8121 5-3.8121 4.469 0 5 0.32431 5 3.0541 0 4.1103 4.3886 6.9459 10.75 6.9459 5.7912 0 7.6158-1.517 8.7708-7.292 0.97883-4.8942-0.0254-6.4637-14.395-22.5-13.79-15.39-15.13-17.87-15.13-28.09 0-6.2408 0.61906-8.9118 2.8125-12.135 5.3068-7.7973 8.6515-9.323 21.339-9.7338 14.273-0.46212 18.893 1.483 23.036 9.6988 4.1697 8.2688 3.8093 10.048-2.0358 10.048-4.2221 0-5.0515-0.49055-6.4214-3.7978-0.8652-2.0888-2.584-4.3388-3.8195-5-6.435-3.4439-14.911 1.5-14.911 8.6975 0 3.9676 1.0038 5.3346 17.149 23.354 4.9915 5.571 9.9249 12.162 10.963 14.647 4.3532 10.419 0.87146 24.433-7.3294 29.501-5.2344 3.235-19.526 4.5396-27.595 2.5191zm56.81-44.35v-45.569h25 25v5 5h-15-15v15 15h9.7917c5.3854 0 10.044 0.25202 10.352 0.56006 0.30803 0.30803 0.34743 2.7896 0.0876 5.5146l-0.47248 4.9545-9.5667-0.0321-9.5667-0.0321-0.35218 14.518-0.35216 14.518h15.04 15.04v5.5694 5.5694h-25-25v-45.569zm70.536 44.024c-0.37206-0.96959-0.50417-18.29-0.29357-38.49 0.37283-35.761 0.4582-36.849 3.2426-41.326 4.7162-7.5844 10.983-9.7799 27.848-9.7556 17.192 0.0247 22.266 2.1171 27.03 11.148 2.8995 5.4962 2.9217 5.8598 2.5938 42.5l-0.33075 36.956-9.6875 0.17684-9.6875 0.17684v-19.769-19.769l-9.9735-0.40767-9.9735-0.40769-0.339 20-0.339 20-9.7064 0.36543c-7.4525 0.28056-9.8635-0.044-10.383-1.3975zm40.522-61.578c-0.40967-11.335-0.62331-12.148-3.9404-15-4.4791-3.8508-8.9142-3.8325-12.8 0.0529-2.829 2.829-3.0682 3.9983-3.0682 15v11.932h10.121 10.121l-0.43317-11.985zm99.459-46.661c-0.29-0.28-0.52-8.58-0.52-18.43v-17.917h18.75 18.75v18.061 18.061l-18.233 0.37673c-10.028 0.2072-18.466 0.14234-18.75-0.14412zm-479.27-0.58c0-1.6181 6.9607-18.498 10.645-25.813l4.3867-8.7109h9.3593 9.3593v17.5 17.5h-16.875c-9.2812 0-16.875-0.21428-16.875-0.47618zm41.25-17.02v-17.5h17.5 17.5v17.5 17.5h-17.5-17.5v-17.5zm42.5 0v-17.5h17.5 17.5v17.5 17.5h-17.5-17.5v-17.5zm41.809 15.904c-0.35189-0.917-0.48099-8.6673-0.28688-17.223l0.35293-15.556h17.5 17.5v16.875 16.875l-17.213 0.34794c-13.442 0.27171-17.353-0.0174-17.853-1.3193zm84.44-15.9v-17.5h17.5 17.5v17.5 17.5h-17.5-17.5v-17.5zm43.045 15.868c-0.3444-0.89751-0.46738-8.6319-0.27327-17.188l0.35-15.56 16.56-0.21 16.56-0.22v17.403 17.403h-16.289c-12.247 0-16.445-0.4049-16.915-1.6318zm83.2-15.87v-17.5h17.5 17.5v17.5 17.5h-17.5-17.5v-17.5zm91.25-41.875v-18.125h18.75 18.75v18.125 18.125h-18.75-18.75v-18.125zm-406.76 15.312c2.5245-4.4209 11.998-17.188 12.756-17.19 0.48089-0.001 0.68927 4.2172 0.46308 9.375l-0.41 9.38h-6.85c-5.1225 0-6.625-0.39404-5.9578-1.5625zm63.005-15.973v-17.535l17.188 0.34777 17.188 0.34778 0.34778 17.188 0.34777 17.188h-17.535-17.535v-17.535zm41.527 0.34778 0.34778-17.188 16.778-0.35029c12.172-0.25412 17.036 0.0681 17.72 1.174 1.0643 1.7221 1.3679 27.998 0.36235 31.364-0.59 1.95-2.57 2.19-18.11 2.19h-17.451l0.34778-17.188zm-70.069-25.216c0.5361-1.4842 18.783-16.346 20.069-16.346 0.53487 0 0.9725 3.9375 0.9725 8.75v8.75h-10.729c-6.0221 0-10.546-0.50606-10.312-1.1535zm70.659 0.35386c-0.48-0.47-0.87-8.37-0.87-17.56v-16.701l17.812 0.34681 17.812 0.34683v16.875 16.875l-16.945 0.3462c-9.32 0.19041-17.336-0.044-17.812-0.52084zm42.466-0.0337c-0.45834-0.45832-0.83334-8.3333-0.83334-17.5v-16.667h17.5 17.5v17.5 17.5h-16.667c-9.1667 0-17.042-0.375-17.5-0.83334zm-84.318-11.822 0.35941-11.406 10-5.4537c8.1807-4.4615 11.194-5.4566 16.562-5.4695l6.5625-0.0157v16.875 16.875h-16.922-16.922l0.3594-11.406zm42.23-30.91c0-0.9314 19.483-6.8044 30.857-9.3016 3.0551-0.67075 3.776 0.523 3.623 5.999l-0.10475 3.75-17.188 0.34778c-9.81 0.19-17.19-0.15-17.19-0.8zm41.25-4.4788c0-3.0532 0.4672-5.84 1.0382-6.1929 0.57103-0.35291 8.446-1.0327 17.5-1.5107l16.462-0.86905v7.0619 7.0619h-17.5-17.5v-5.5512zm42.5-0.86028v-6.4115l9.0625 0.86833c4.9844 0.47759 12.859 1.7204 17.5 2.7617 8.0579 1.8082 8.4375 2.0576 8.4375 5.5432v3.6498h-17.5-17.5v-6.4115z" fill="#c7c7c3"/>
 <path id="path3407" d="m250 544.83c-27.4-2.81-52.91-10.41-77.5-23.09-33.82-17.44-61.31-41.93-81.104-72.26-25.356-38.85-39.892-93.23-36.263-135.66 6.115-71.49 44.541-136.2 101.75-171.35 11.998-7.3722 31.5-16.49 45-21.039 19.501-6.5715 49.506-11.612 66.875-11.233 4.4688 0.0974 6.4375 0.38643 4.375 0.64237-34.787 4.3167-57.808 10.902-85 24.316-53.798 26.539-95.248 77.849-111.31 137.79-1.6848 6.2886-3.0647 11.546-3.0664 11.682-0.0018 0.1368 1.9475-0.56632 4.3317-1.5625 2.8997-1.2116 8.917-1.8112 18.175-1.8112 15.778 0 21.365 1.9086 26.448 9.0342 2.8268 3.9632 2.9302 5.0068 3.3148 33.466 0.24231 17.93-0.11013 31.093-0.90469 33.785-1.7323 5.8697-8.6681 12.394-14.652 13.782-7.3453 1.7042-25.449 1.3012-31.042-0.69092-2.7237-0.9701-5.1409-1.575-5.3716-1.3443-1.0179 1.0179 5.4983 23.854 10.536 36.921 20.079 52.088 56.809 91.74 108.01 116.6 22.248 10.803 57.04 20.946 71.844 20.946 2.9775 0 5.7613 0.5625 6.1862 1.25 0.90126 1.4583-5.2142 1.4078-20.625-0.17012zm-146.34-186.87c2.4462-3.1098 2.5907-4.8589 2.5907-31.346v-28.053l-3.8001-3.8001c-3.1803-3.1803-4.4545-3.6737-7.8125-3.0251-8.0903 1.5627-8.3874 2.7984-8.3874 34.888 0 27.894 0.08947 28.939 2.7179 31.737 3.9433 4.1974 11.231 3.9988 14.691-0.40051zm155.32 173.22c-2.2191-0.88989-2.8037-1.9676-2.5-4.6083l0.39643-3.4467 17.188-0.34777 17.188-0.34778v5.0353 5.0353l-14.688-0.0793c-8.0781-0.0436-15.991-0.60191-17.584-1.2408zm-23.146-3.7673c-15.603-3.8339-15.709-4.8317-0.51974-4.8747l13.438-0.038v3.75c0 4.3642 0.0814 4.3568-12.918 1.1627zm-41.45-14.46c-2.0625-1.071-7.8281-4.2426-12.812-7.0479l-9.0625-5.1005v-9.7771-9.7771h17.5 17.5v16.875 16.875l-4.6875-0.05c-2.5781-0.0275-6.375-0.92635-8.4375-1.9974zm20.62-14.83v-16.875h16.875 16.875v16.875 16.875h-16.875-16.875v-16.875zm41.25 0v-16.875h17.5 17.5v16.875 16.875h-17.5-17.5v-16.875zm-100.36-9.5221-8.4863-6.7279 8.3217-0.37299c4.5769-0.20514 8.568-0.12671 8.869 0.17429s0.3751 3.4964 0.16465 7.1008l-0.38261 6.5536-8.4863-6.7279zm59.632-15.999c-0.29-0.28-0.52-8.02-0.52-17.18v-16.667h16.875 16.875v17.188 17.188h-16.354c-8.9948 0-16.589-0.23438-16.875-0.52084zm83.75 0c-0.28625-0.28645-0.52046-8.0208-0.52046-17.188v-16.667h17.535 17.535l-0.34777 16.953-0.34778 16.953-16.667 0.2344c-9.1669 0.12892-16.901 0.00003-17.188-0.28643zm99.792 0.17205-16.562-0.34877v-16.839-16.839h17.5 17.5v16.801c0 9.2407-0.42188 16.975-0.9375 17.188-0.51563 0.21245-8.3906 0.22932-17.5 0.0375zm117.47-21.839 0.34683-17.812h18.125 18.125l0.34683 17.812 0.34681 17.812h-18.819-18.819l0.34681-17.812zm-398.34-1.0874c-1.8048-2.1449-4.1193-5.5199-5.1432-7.5l-1.8617-3.6002h5.6571 5.6571v7.5c0 4.125-0.23125 7.5-0.51388 7.5-0.28264 0-1.9906-1.7549-3.7954-3.8998zm-12.9-20.15c-2.925-3.6075-15.289-30.18-15.289-32.859 0-0.3183 7.3125-0.57873 16.25-0.57873h16.25v17.5 17.5h-7.9719c-4.8686 0-8.4651-0.60826-9.2388-1.5625zm24.988-15.625 0.34778-17.188 17.188-0.34777 17.188-0.34778v17.535 17.535h-17.535-17.535l0.34777-17.188zm42.22-0.31v-17.571l17.188 0.34777 17.188 0.34778v16.875 16.875l-17.188 0.34777-17.188 0.34778v-17.571zm210.55 15.868c-0.3444-0.89751-0.46738-8.6319-0.27326-17.188l0.35292-15.556 17.188-0.34777 17.188-0.34778v17.535 17.535h-16.914c-12.762 0-17.068-0.40064-17.54-1.6318zm42.232-15.556 0.34777-17.188 17.188-0.34777 17.188-0.34778v17.535 17.535h-17.535-17.535l0.34778-17.188zm-278.16-42.35c-0.48117-0.48115-0.87484-17.43-0.87484-37.665 0-41.082 0.24621-42.493 8.5161-48.801 4.2987-3.2788 4.8645-3.3669 21.607-3.3669 19.09 0 21.185 0.72474 27.064 9.3623 2.7668 4.0653 2.8125 4.7599 2.8125 42.75v38.618l-9.6875-0.36508-9.6875-0.36508-0.34087-20-0.34088-20-9.6591 0.226-9.6591 0.22599-0.34265 19.917-0.34265 19.917-9.095 0.21088c-5.0022 0.116-9.4887-0.1828-9.9698-0.66396zm39.13-61.61c0-13.163-0.43454-14.616-5.0894-17.023-5.0814-2.6277-7.1373-2.2944-11.257 1.8251-3.5017 3.5017-3.6538 4.1262-3.6538 15v11.346h10 10v-11.148zm50.92 61.65c-0.51-0.5-0.92-18.82-0.92-40.71v-39.792h-10-10v-5-5h30.625 30.625v5 5h-9.9827-9.9827l-0.32983 40.312-0.32981 40.312-9.3928 0.39884c-5.166 0.21935-9.8067-0.015-10.312-0.52084zm63.518-0.58147c-7.95-1.99-13.19-8.39-13.19-16.11 0-3.6141 0.25969-3.8121 5-3.8121 4.469 0 5 0.32431 5 3.0541 0 4.1103 4.3886 6.9459 10.75 6.9459 5.7912 0 7.6158-1.517 8.7708-7.292 0.97883-4.8942-0.0254-6.4637-14.395-22.5-13.79-15.39-15.13-17.87-15.13-28.09 0-6.2408 0.61906-8.9118 2.8125-12.135 5.3068-7.7973 8.6515-9.323 21.339-9.7338 14.273-0.46212 18.893 1.483 23.036 9.6988 4.1697 8.2688 3.8093 10.048-2.0358 10.048-4.2221 0-5.0515-0.49055-6.4214-3.7978-0.8652-2.0888-2.584-4.3388-3.8195-5-6.435-3.4439-14.911 1.5-14.911 8.6975 0 3.9676 1.0038 5.3346 17.149 23.354 4.9915 5.571 9.9249 12.162 10.963 14.647 4.3532 10.419 0.87146 24.433-7.3294 29.501-5.2344 3.235-19.526 4.5396-27.595 2.5191zm56.81-44.35v-45.569h25 25v5 5h-15-15v15 15h9.7917c5.3854 0 10.044 0.25202 10.352 0.56006 0.30803 0.30803 0.34743 2.7896 0.0876 5.5146l-0.47248 4.9545-9.5667-0.0321-9.5667-0.0321-0.35218 14.518-0.35216 14.518h15.04 15.04v5.5694 5.5694h-25-25v-45.569zm70.536 44.024c-0.37206-0.96959-0.50417-18.29-0.29357-38.49 0.37283-35.761 0.4582-36.849 3.2426-41.326 4.7162-7.5844 10.983-9.7799 27.848-9.7556 17.192 0.0247 22.266 2.1171 27.03 11.148 2.8995 5.4962 2.9217 5.8598 2.5938 42.5l-0.33075 36.956-9.6875 0.17684-9.6875 0.17684v-19.769-19.769l-9.9735-0.40767-9.9735-0.40769-0.339 20-0.339 20-9.7064 0.36543c-7.4525 0.28056-9.8635-0.044-10.383-1.3975zm40.522-61.578c-0.40967-11.335-0.62331-12.148-3.9404-15-4.4791-3.8508-8.9142-3.8325-12.8 0.0529-2.829 2.829-3.0682 3.9983-3.0682 15v11.932h10.121 10.121l-0.43317-11.985zm-379.81-47.17c0-1.3642 7.0664-17.883 10.92-25.528l4.5685-9.0625h9.1305 9.1305v17.5 17.5h-16.875c-9.2812 0-16.875-0.18428-16.875-0.40949zm41.25-17.09v-17.5h17.5 17.5v17.5 17.5h-17.5-17.5v-17.5zm42.5 0v-17.571l17.188 0.34777 17.188 0.34778v16.875 16.875l-17.188 0.34778-17.19 0.34v-17.57zm42.5 0v-17.5h16.875 16.875v17.5 17.5h-16.875-16.875v-17.5zm83.75 0v-17.5h17.5 17.5v17.5 17.5h-17.5-17.5v-17.5zm126.53 0.3125 0.34778-17.188 17.188-0.34778 17.188-0.34777v17.535 17.535h-17.535-17.535l0.34777-17.188zm142.5-0.625 0.34683-17.812 18.438-0.34591 18.438-0.34593v18.158 18.158h-18.784-18.784l0.34681-17.812zm-50.662-24.238c-0.4764-0.4764-0.86619-8.6474-0.86619-18.158v-17.292h18.784 18.784l-0.34681 17.812-0.34683 17.812-17.571 0.34535c-9.6642 0.18994-17.961-0.0445-18.438-0.52084zm-402.04-9.82c3.5645-5.1562 6.6919-9.375 6.9498-9.375 0.25789 0 0.46888 4.2188 0.46888 9.375v9.375h-6.9498-6.9498l6.4809-9.375zm57.419-7.5v-16.875h17.5 17.5v16.875 16.875h-17.5-17.5v-16.875zm42.5 0v-16.875h16.875 16.875v16.875 16.875h-16.875-16.875v-16.875zm-70-25.543c0-1.3731 17.474-16.282 19.12-16.313 0.54704-0.01 0.82829 3.778 0.625 8.4186l-0.36961 8.4375-9.6875 0.36507c-5.97 0.23-9.68-0.12-9.68-0.91zm70-16.332v-17.5h16.875 16.875v17.5 17.5h-16.875-16.875v-17.5zm42.118 16.701c-0.48-0.48-0.87-8.37-0.87-17.53v-16.667h17.535 17.535l-0.34777 17.188-0.34778 17.188-16.32 0.34709c-8.9758 0.1909-16.71-0.0435-17.188-0.52083zm-41.43-42.87c1.3851-1.368 21.251-7.258 28.261-8.3788l4.8017-0.76783v5.1598 5.1598h-17.125c-10.676 0-16.678-0.44168-15.938-1.1728zm41.396 0.33951c-0.45834-0.45832-0.83334-2.924-0.83334-5.4792 0-5.8545 0.96571-6.1479 20.312-6.1704l14.688-0.0171v6.25 6.25h-16.667c-9.1667 0-17.042-0.375-17.5-0.83334zm41.66-5.42c0-7.271-1.0774-6.9775 16.129-4.3932 16.195 2.4325 18.871 3.494 18.871 7.4872v3.1559h-17.5-17.5v-6.25z" fill="#a8a9a8"/>
 <path id="path3405" d="m250 544.83c-27.4-2.81-52.91-10.41-77.5-23.09-33.82-17.44-61.31-41.93-81.104-72.26-25.356-38.85-39.892-93.23-36.263-135.66 6.115-71.49 44.541-136.2 101.75-171.35 11.998-7.3722 31.5-16.49 45-21.039 19.501-6.5715 49.506-11.612 66.875-11.233 4.4688 0.0974 6.4375 0.38643 4.375 0.64237-34.787 4.3167-57.808 10.902-85 24.316-53.798 26.539-95.248 77.849-111.31 137.79-1.6848 6.2886-3.0647 11.546-3.0664 11.682-0.0018 0.1368 1.9475-0.56632 4.3317-1.5625 2.8997-1.2116 8.917-1.8112 18.175-1.8112 15.778 0 21.365 1.9086 26.448 9.0342 2.8268 3.9632 2.9302 5.0068 3.3148 33.466 0.24231 17.93-0.11013 31.093-0.90469 33.785-1.7323 5.8697-8.6681 12.394-14.652 13.782-7.3453 1.7042-25.449 1.3012-31.042-0.69092-2.7237-0.9701-5.1409-1.575-5.3716-1.3443-1.0179 1.0179 5.4983 23.854 10.536 36.921 20.079 52.088 56.809 91.74 108.01 116.6 22.248 10.803 57.04 20.946 71.844 20.946 2.9775 0 5.7613 0.5625 6.1862 1.25 0.90126 1.4583-5.2142 1.4078-20.625-0.17012zm-146.34-186.87c2.4462-3.1098 2.5907-4.8589 2.5907-31.346v-28.053l-3.8001-3.8001c-3.1803-3.1803-4.4545-3.6737-7.8125-3.0251-8.0903 1.5627-8.3874 2.7984-8.3874 34.888 0 27.894 0.08947 28.939 2.7179 31.737 3.9433 4.1974 11.231 3.9988 14.691-0.40051zm158.53 173.63c-4.2424-0.44376-4.6875-0.83923-4.6875-4.1649v-3.6745h16.875 16.875v4.375 4.375l-12.188-0.21012c-6.7031-0.11563-14.297-0.43078-16.875-0.70047zm-26.25-4.3953c-6.02-1.42-10.94-3.12-10.94-3.77 0-0.65101 0.88975-0.84221 1.9772-0.42491 1.0875 0.41731 6.4312 0.75874 11.875 0.75874 9.7243 0 9.8978 0.0548 9.8978 3.125 0 1.7188-0.42188 3.0774-0.9375 3.0192-0.51563-0.0581-5.8594-1.2732-11.875-2.7001zm-46.4-17.18c-17.07-8.73-17.04-8.7-17.04-19.47v-9.2899h16.875 16.875v16.875 16.875h-3.472c-1.9096 0-7.8645-2.2463-13.233-4.9918zm25.46-11.89v-16.875h16.875 16.875v16.875 16.875h-16.875-16.875v-16.875zm42.5 0v-16.875h16.875 16.875v16.875 16.875h-16.875-16.875v-16.875zm-98.269-7.12c-1.9833-1.5098-5.4538-4.3223-7.7121-6.25l-4.106-3.505h8.7935 8.7935v6.25c0 3.4375-0.48664 6.25-1.0814 6.25-0.59478 0-2.7042-1.2353-4.6875-2.745zm55.77-35.38v-16.875h16.875 16.875v16.875 16.875h-16.875-16.875v-16.875zm83.75 0v-16.875h17.5 17.5v16.875 16.875h-17.5-17.5v-16.875zm85 0v-16.875h16.875 16.875v16.875 16.875h-16.875-16.875v-16.875zm132.5-4.375v-17.5h18.75 18.75v17.5 17.5h-18.75-18.75v-17.5zm-397.9-1.5625c-1.6628-2.2344-4.0061-5.6094-5.2074-7.5l-2.1842-3.4375h5.7688 5.7688v7.5c0 4.125-0.25262 7.5-0.56139 7.5-0.30876 0-1.9218-1.8281-3.5846-4.0625zm-15.678-25.005c-6.6992-11.709-12.816-27.207-11.011-27.9 0.88695-0.34035 8.047-0.45878 15.911-0.26318l14.299 0.35565 0.34778 17.188 0.34777 17.188h-8.0685-8.0685l-3.7575-6.5674zm27.883 4.9721c-0.3521-0.91756-0.48138-8.6684-0.28727-17.224l0.35293-15.556h16.875 16.875v16.875 16.875l-16.588 0.34896c-12.927 0.27194-16.729-0.0192-17.228-1.3193zm42.218-15.592 0.34778-17.188 16.562-0.34879 16.562-0.34877v17.536 17.536h-16.91-16.91l0.34777-17.188zm210.97-0.34879v-17.536l16.562 0.34877 16.562 0.34879 0.34777 17.188 0.34778 17.188h-16.91-16.91v-17.536zm42.51 1.29v-17.188c0-0.51563 7.4531-0.9375 16.562-0.9375h16.562l0.34777 17.188 0.34778 17.188h-16.91-16.91v-16.25zm-279.13-43.29c-0.48117-0.48115-0.87484-17.43-0.87484-37.665 0-41.082 0.24621-42.493 8.5161-48.801 4.2987-3.2788 4.8645-3.3669 21.607-3.3669 19.09 0 21.185 0.72474 27.064 9.3623 2.7668 4.0653 2.8125 4.7599 2.8125 42.75v38.618l-9.6875-0.36508-9.6875-0.36508-0.34087-20-0.34088-20-9.6591 0.226-9.6591 0.22599-0.34265 19.917-0.34265 19.917-9.095 0.21088c-5.0022 0.116-9.4887-0.1828-9.9698-0.66396zm39.13-61.61c0-13.163-0.43454-14.616-5.0894-17.023-5.0814-2.6277-7.1373-2.2944-11.257 1.8251-3.5017 3.5017-3.6538 4.1262-3.6538 15v11.346h10 10v-11.148zm50.92 61.65c-0.51-0.5-0.92-18.82-0.92-40.71v-39.792h-10-10v-5-5h30.625 30.625v5 5h-9.9827-9.9827l-0.32983 40.312-0.32981 40.312-9.3928 0.39884c-5.166 0.21935-9.8067-0.015-10.312-0.52084zm63.518-0.58147c-7.95-1.99-13.19-8.39-13.19-16.11 0-3.6141 0.25969-3.8121 5-3.8121 4.469 0 5 0.32431 5 3.0541 0 4.1103 4.3886 6.9459 10.75 6.9459 5.7912 0 7.6158-1.517 8.7708-7.292 0.97883-4.8942-0.0254-6.4637-14.395-22.5-13.79-15.39-15.13-17.87-15.13-28.09 0-6.2408 0.61906-8.9118 2.8125-12.135 5.3068-7.7973 8.6515-9.323 21.339-9.7338 14.273-0.46212 18.893 1.483 23.036 9.6988 4.1697 8.2688 3.8093 10.048-2.0358 10.048-4.2221 0-5.0515-0.49055-6.4214-3.7978-0.8652-2.0888-2.584-4.3388-3.8195-5-6.435-3.4439-14.911 1.5-14.911 8.6975 0 3.9676 1.0038 5.3346 17.149 23.354 4.9915 5.571 9.9249 12.162 10.963 14.647 4.3532 10.419 0.87146 24.433-7.3294 29.501-5.2344 3.235-19.526 4.5396-27.595 2.5191zm56.81-44.35v-45.569h25 25v5 5h-15-15v15 15h9.7917c5.3854 0 10.044 0.25202 10.352 0.56006 0.30803 0.30803 0.34743 2.7896 0.0876 5.5146l-0.47248 4.9545-9.5667-0.0321-9.5667-0.0321-0.35218 14.518-0.35216 14.518h15.04 15.04v5.5694 5.5694h-25-25v-45.569zm70.536 44.024c-0.37206-0.96959-0.50417-18.29-0.29357-38.49 0.37283-35.761 0.4582-36.849 3.2426-41.326 4.7162-7.5844 10.983-9.7799 27.848-9.7556 17.192 0.0247 22.266 2.1171 27.03 11.148 2.8995 5.4962 2.9217 5.8598 2.5938 42.5l-0.33075 36.956-9.6875 0.17684-9.6875 0.17684v-19.769-19.769l-9.9735-0.40767-9.9735-0.40769-0.339 20-0.339 20-9.7064 0.36543c-7.4525 0.28056-9.8635-0.044-10.383-1.3975zm40.522-61.578c-0.40967-11.335-0.62331-12.148-3.9404-15-4.4791-3.8508-8.9142-3.8325-12.8 0.0529-2.829 2.829-3.0682 3.9983-3.0682 15v11.932h10.121 10.121l-0.43317-11.985zm-378.56-48.51c0-2.2541 7.9386-21.124 11.622-27.625l2.8329-5h8.7102 8.7102l0.34778 17.188 0.34777 17.188h-16.285c-13.126 0-16.285-0.33954-16.285-1.75zm40.559 0.15467c-0.3521-0.91756-0.48138-8.6684-0.28727-17.224l0.35293-15.556h16.875 16.875v16.875 16.875l-16.588 0.34896c-12.927 0.27194-16.729-0.0192-17.228-1.3193zm42.218-15.592 0.34778-17.188 16.562-0.34879 16.562-0.34877v17.536 17.536h-16.91-16.91l0.34777-17.188zm42.22-0.31v-17.5h16.875 16.875v17.5 17.5h-16.875-16.875v-17.5zm84.309 15.905c-0.3521-0.91756-0.48138-8.6684-0.28726-17.224l0.35292-15.556h16.875 16.875v16.875 16.875l-16.588 0.34896c-12.927 0.27194-16.729-0.0192-17.228-1.3193zm126.94-15.94v-17.536l16.562 0.34877 16.562 0.34879 0.34777 17.188 0.34778 17.188h-16.91-16.91v-17.536zm141.25 0.0362v-17.5h18.75 18.75v17.5 17.5h-18.75-18.75v-17.5zm-453-33.1c3.1144-4.4552 6.1893-8.4258 6.8331-8.8238 0.68529-0.42353 1.1706 2.9349 1.1706 8.1003v8.8238h-6.8331-6.8331l5.6625-8.1003zm58-8.78v-16.875h16.875 16.875v16.875 16.875h-16.875-16.875v-16.875zm42.5 0v-16.875h16.875 16.875v16.875 16.875h-16.875-16.875v-16.875zm301.25-0.625v-17.5h18.75 18.75v17.5 17.5h-18.75-18.75v-17.5zm-371.25-25.48c0-0.56026 16.112-13.684 18.438-15.018 1.1823-0.67823 1.5625 1.0987 1.5625 7.3024v8.1988h-10c-5.5 0-10-0.21743-10-0.48318zm70-16.392v-16.875h16.875 16.875v16.875 16.875h-16.875-16.875v-16.875zm42.5 0v-16.875h16.875 16.875v16.875 16.875h-16.875-16.875v-16.875zm-41.808-25.568c1.0747-1.0747 29.075-8.8075 31.892-8.8075 0.64104 0 1.1655 2.25 1.1655 5v5h-17.125c-10.866 0-16.689-0.43584-15.932-1.1925zm41.81-4.28c0-5.125 0.24554-5.5179 3.9062-6.25 2.1484-0.42969 9.7422-0.78125 16.875-0.78125h12.969v6.25 6.25h-16.875-16.875v-5.4688zm42.118 4.67c-1.2207-1.2207-1.0851-10.169 0.16575-10.943 1.0683-0.66026 22.962 2.3399 29.591 4.055 2.8751 0.74382 3.75 1.6807 3.75 4.0157v3.0455l-16.32 0.34709c-8.9758 0.1909-16.71-0.0435-17.188-0.52083z" fill="#e98f67"/>
 <path id="path3403" d="m239.96 543.09c-43.06-6.71-81.66-25.05-115.46-54.87-40.603-35.81-69.373-102.24-69.477-160.42-0.05611-31.413 9.5968-70.243 24.838-99.914 24.856-48.39 63.796-83.661 113.73-103.02 17.96-6.9611 50.004-13.78 63.283-13.467l6.25 0.1474-7.208 1.0552c-3.9644 0.58035-12.683 2.4429-19.375 4.1389-63.939 16.205-112.98 54.563-143.19 112-8.0432 15.293-21.4 53.623-19.387 55.636 0.27567 0.27567 2.7297-0.2925 5.4534-1.2626 5.8157-2.0714 25.387-2.4332 32.017-0.5918 2.6651 0.74025 6.4361 3.3395 9.0625 6.2466l4.51 4.98-0.005 32.184c-0.004 29.91-0.1802 32.472-2.4886 36.258-4.6759 7.6691-8.6939 9.0466-26.257 9.0021-11.192-0.0284-16.512-0.54644-18.75-1.826-1.7188-0.98253-3.4912-1.8064-3.9388-1.8307-2.836-0.15438 8.7755 36.591 17.298 54.741 18.674 39.769 50.85 73.468 91.84 96.187 18.833 10.439 49.136 20.965 71.051 24.682 8.812 1.4943 8.9997 1.5902 3.125 1.5969-3.4375 0.004-11.048-0.74122-16.913-1.6558zm-137.56-183.83 3.8459-3.2361v-29.321-29.321l-3.0682-3.0682c-3.9736-3.9736-9.4664-3.9937-14.05-0.0514l-3.5072 3.0167v29.591 29.591l3.5072 3.0168c4.5161 3.8846 8.4724 3.8192 13.272-0.21934zm159.79 172.33c-4.2424-0.44376-4.6875-0.83923-4.6875-4.1649v-3.6745h16.875 16.875v4.375 4.375l-12.188-0.21012c-6.7031-0.11563-14.297-0.43078-16.875-0.70047zm-26.25-4.3953c-6.02-1.42-10.94-3.12-10.94-3.77 0-0.65101 0.88975-0.84221 1.9772-0.42491 1.0875 0.41731 6.4312 0.75874 11.875 0.75874 9.7243 0 9.8978 0.0548 9.8978 3.125 0 1.7188-0.42188 3.0774-0.9375 3.0192-0.51563-0.0581-5.8594-1.2732-11.875-2.7001zm-46.4-17.18c-17.07-8.73-17.04-8.7-17.04-19.47v-9.2899h16.875 16.875v16.875 16.875h-3.472c-1.9096 0-7.8645-2.2463-13.233-4.9918zm25.46-11.89v-16.875h16.875 16.875v16.875 16.875h-16.875-16.875v-16.875zm42.5 0v-16.875h16.875 16.875v16.875 16.875h-16.875-16.875v-16.875zm-98.269-7.12c-1.9833-1.5098-5.4538-4.3223-7.7121-6.25l-4.106-3.505h8.7935 8.7935v6.25c0 3.4375-0.48664 6.25-1.0814 6.25-0.59478 0-2.7042-1.2353-4.6875-2.745zm55.77-35.38v-16.875h16.875 16.875v16.875 16.875h-16.875-16.875v-16.875zm83.75 0v-16.875h17.5 17.5v16.875 16.875h-17.5-17.5v-16.875zm85 0v-16.875h16.875 16.875v16.875 16.875h-16.875-16.875v-16.875zm132.5-4.375v-17.5h18.75 18.75v17.5 17.5h-18.75-18.75v-17.5zm-397.9-1.5625c-1.6628-2.2344-4.0061-5.6094-5.2074-7.5l-2.1842-3.4375h5.7688 5.7688v7.5c0 4.125-0.25262 7.5-0.56139 7.5-0.30876 0-1.9218-1.8281-3.5846-4.0625zm-15.678-25.005c-6.6992-11.709-12.816-27.207-11.011-27.9 0.88695-0.34035 8.047-0.45878 15.911-0.26318l14.299 0.35565 0.34778 17.188 0.34777 17.188h-8.0685-8.0685l-3.7575-6.5674zm27.883 4.9721c-0.3521-0.91756-0.48138-8.6684-0.28727-17.224l0.35293-15.556h16.875 16.875v16.875 16.875l-16.588 0.34896c-12.927 0.27194-16.729-0.0192-17.228-1.3193zm42.218-15.592 0.34778-17.188 16.562-0.34879 16.562-0.34877v17.536 17.536h-16.91-16.91l0.34777-17.188zm210.97-0.34879v-17.536l16.562 0.34877 16.562 0.34879 0.34777 17.188 0.34778 17.188h-16.91-16.91v-17.536zm42.51 1.29v-17.188c0-0.51563 7.4531-0.9375 16.562-0.9375h16.562l0.34777 17.188 0.34778 17.188h-16.91-16.91v-16.25zm-279.77-81.56c0.36771-35.201 0.56765-38.099 2.895-41.961 4.8312-8.0176 9.2639-9.6012 26.875-9.6012 18.076 0 22.363 1.589 27.166 10.07 2.7157 4.7945 2.7932 5.9552 2.8132 42.118l0.0206 37.188h-9.3433-9.3432l-0.34425-19.688-0.34424-19.688-10.312-0.36305-10.312-0.36305v20.051 20.051h-10.082-10.082l0.39497-37.812zm40.4-23.86c0-11.926-0.10613-12.39-3.5072-15.312-4.5838-3.9394-10.077-3.9182-14.05 0.0541-2.852 2.8519-3.0682 3.9566-3.0682 15.675v12.607l10.312-0.36305 10.312-0.36305v-12.298zm50.62 21.67v-40h-10-10v-5-5h29.375 29.375v5 5h-10-10v40 40h-9.375-9.375v-40zm59.02 38.119c-2.8222-1.2262-4.8638-3.4564-6.535-7.1386-3.7615-8.2876-3.3778-9.7302 2.5883-9.7302 3.1012 0 4.7701 0.49134 4.2927 1.2638-1.3756 2.2257 6.3516 8.7362 10.369 8.7362 5.9027 0 10.265-4.2754 10.265-10.061 0-4.4348-1.2244-6.2533-13.438-19.958-7.3906-8.2934-14.115-16.604-14.944-18.467-4.3096-9.6958-0.26272-24.505 8.0179-29.341 4.7706-2.7862 15.342-4.084 23.411-2.8741 6.7776 1.0164 13.762 6.4404 15.005 11.653 0.44906 1.8832 1.1089 4.4084 1.4664 5.6115 0.54405 1.8313-0.178 2.1875-4.4344 2.1875-3.4628 0-5.0842-0.54421-5.0842-1.7064 0-0.93854-1.1658-3.1885-2.5907-5-1.9729-2.5082-3.7045-3.2936-7.2611-3.2936-5.7874 0-8.5772 1.9668-10.033 7.0729-1.5357 5.3875 0.0229 8.0134 13.672 23.036 16.464 18.12 19.443 26.718 13.4 38.679-4.5214 8.9501-9.1376 11.222-22.685 11.164-6.9987-0.0301-12.957-0.73531-15.482-1.8323zm60.98-43.12v-45h25 25v5 5h-15-15v15.625 15.625h10 10v4.375 4.375h-10-10v15.625 15.625h15 15v4.375 4.375h-25-25v-45zm71.25 7.0598c0-37.298 0.0478-38.012 2.8226-42.188 1.5524-2.336 5.3493-5.5482 8.4375-7.1381 5.0913-2.6212 6.9738-2.8544 20.187-2.5 14.167 0.37993 14.705 0.49844 19.375 4.2628 2.6418 2.1296 5.498 5.2234 6.3472 6.875 1.1239 2.1859 1.5491 13.292 1.5625 40.815l0.0184 37.812h-9.375-9.375v-20-20h-10.625-10.625v20 20h-9.375-9.375v-37.94zm40-22.122c0-11.759-1.7473-17.652-5.681-19.161-4.3359-1.6638-8.9382-0.71798-11.914 2.4485-2.614 2.7819-3.091 4.6728-3.4717 13.763-0.24271 5.7958-0.11975 11.376 0.27327 12.4 0.5509 1.4356 3.014 1.8621 10.754 1.8621h10.039v-11.312zm-378.75-50.44c0-2.2541 7.9386-21.124 11.622-27.625l2.8329-5h8.7102 8.7102l0.34778 17.188 0.34777 17.188h-16.285c-13.126 0-16.285-0.33954-16.285-1.75zm40.559 0.15467c-0.3521-0.91756-0.48138-8.6684-0.28727-17.224l0.35293-15.556h16.875 16.875v16.875 16.875l-16.588 0.34896c-12.927 0.27194-16.729-0.0192-17.228-1.3193zm42.218-15.592 0.34778-17.188 16.562-0.34879 16.562-0.34877v17.536 17.536h-16.91-16.91l0.34777-17.188zm42.22-0.31v-17.5h16.875 16.875v17.5 17.5h-16.875-16.875v-17.5zm84.309 15.905c-0.3521-0.91756-0.48138-8.6684-0.28726-17.224l0.35292-15.556h16.875 16.875v16.875 16.875l-16.588 0.34896c-12.927 0.27194-16.729-0.0192-17.228-1.3193zm126.94-15.94v-17.536l16.562 0.34877 16.562 0.34879 0.34777 17.188 0.34778 17.188h-16.91-16.91v-17.536zm141.25 0.0362v-17.5h18.75 18.75v17.5 17.5h-18.75-18.75v-17.5zm-453-33.1c3.1144-4.4552 6.1893-8.4258 6.8331-8.8238 0.68529-0.42353 1.1706 2.9349 1.1706 8.1003v8.8238h-6.8331-6.8331l5.6625-8.1003zm58-8.78v-16.875h16.875 16.875v16.875 16.875h-16.875-16.875v-16.875zm42.5 0v-16.875h16.875 16.875v16.875 16.875h-16.875-16.875v-16.875zm301.25-0.625v-17.5h18.75 18.75v17.5 17.5h-18.75-18.75v-17.5zm-371.25-25.48c0-0.56026 16.112-13.684 18.438-15.018 1.1823-0.67823 1.5625 1.0987 1.5625 7.3024v8.1988h-10c-5.5 0-10-0.21743-10-0.48318zm70-16.392v-16.875h16.875 16.875v16.875 16.875h-16.875-16.875v-16.875zm42.5 0v-16.875h16.875 16.875v16.875 16.875h-16.875-16.875v-16.875zm-41.808-25.568c1.0747-1.0747 29.075-8.8075 31.892-8.8075 0.64104 0 1.1655 2.25 1.1655 5v5h-17.125c-10.866 0-16.689-0.43584-15.932-1.1925zm41.81-4.28c0-5.125 0.24554-5.5179 3.9062-6.25 2.1484-0.42969 9.7422-0.78125 16.875-0.78125h12.969v6.25 6.25h-16.875-16.875v-5.4688zm42.118 4.67c-1.2207-1.2207-1.0851-10.169 0.16575-10.943 1.0683-0.66026 22.962 2.3399 29.591 4.055 2.8751 0.74382 3.75 1.6807 3.75 4.0157v3.0455l-16.32 0.34709c-8.9758 0.1909-16.71-0.0435-17.188-0.52083zm-33.666-25.085c1.5549-0.29899 3.8049-0.28764 5 0.0252 1.1951 0.31286-0.0771 0.55749-2.8271 0.54362-2.75-0.0139-3.7278-0.26986-2.1729-0.56885z" fill="#df5e27"/>
 <path id="path3401" d="m262.19 531.59c-4.2424-0.44376-4.6875-0.83923-4.6875-4.1649v-3.6745h16.875 16.875v4.375 4.375l-12.188-0.21012c-6.7031-0.11563-14.297-0.43078-16.875-0.70047zm-26.25-4.3953c-6.02-1.42-10.94-3.12-10.94-3.77 0-0.65101 0.88975-0.84221 1.9772-0.42491 1.0875 0.41731 6.4312 0.75874 11.875 0.75874 9.7243 0 9.8978 0.0548 9.8978 3.125 0 1.7188-0.42188 3.0774-0.9375 3.0192-0.51563-0.0581-5.8594-1.2732-11.875-2.7001zm-46.4-17.18c-17.07-8.73-17.04-8.7-17.04-19.47v-9.2899h16.875 16.875v16.875 16.875h-3.472c-1.9096 0-7.8645-2.2463-13.233-4.9918zm25.46-11.89v-16.875h16.875 16.875v16.875 16.875h-16.875-16.875v-16.875zm42.5 0v-16.875h16.875 16.875v16.875 16.875h-16.875-16.875v-16.875zm-98.269-7.12c-1.9833-1.5098-5.4538-4.3223-7.7121-6.25l-4.106-3.505h8.7935 8.7935v6.25c0 3.4375-0.48664 6.25-1.0814 6.25-0.59478 0-2.7042-1.2353-4.6875-2.745zm55.77-35.38v-16.875h16.875 16.875v16.875 16.875h-16.875-16.875v-16.875zm83.75 0v-16.875h17.5 17.5v16.875 16.875h-17.5-17.5v-16.875zm85 0v-16.875h16.875 16.875v16.875 16.875h-16.875-16.875v-16.875zm132.5-4.375v-17.5h18.75 18.75v17.5 17.5h-18.75-18.75v-17.5zm-397.9-1.5625c-1.6628-2.2344-4.0061-5.6094-5.2074-7.5l-2.1842-3.4375h5.7688 5.7688v7.5c0 4.125-0.25262 7.5-0.56139 7.5-0.30876 0-1.9218-1.8281-3.5846-4.0625zm-15.678-25.005c-6.6992-11.709-12.816-27.207-11.011-27.9 0.88695-0.34035 8.047-0.45878 15.911-0.26318l14.299 0.35565 0.34778 17.188 0.34777 17.188h-8.0685-8.0685l-3.7575-6.5674zm27.883 4.9721c-0.3521-0.91756-0.48138-8.6684-0.28727-17.224l0.35293-15.556h16.875 16.875v16.875 16.875l-16.588 0.34896c-12.927 0.27194-16.729-0.0192-17.228-1.3193zm42.218-15.592 0.34778-17.188 16.562-0.34879 16.562-0.34877v17.536 17.536h-16.91-16.91l0.34777-17.188zm210.97-0.34879v-17.536l16.562 0.34877 16.562 0.34879 0.34777 17.188 0.34778 17.188h-16.91-16.91v-17.536zm42.51 1.29v-17.188c0-0.51563 7.4531-0.9375 16.562-0.9375h16.562l0.34777 17.188 0.34778 17.188h-16.91-16.91v-16.25zm-336.25-154.25c0-2.2541 7.9386-21.124 11.622-27.625l2.8329-5h8.7102 8.7102l0.34778 17.188 0.34777 17.188h-16.285c-13.126 0-16.285-0.33954-16.285-1.75zm40.559 0.15467c-0.3521-0.91756-0.48138-8.6684-0.28727-17.224l0.35293-15.556h16.875 16.875v16.875 16.875l-16.588 0.34896c-12.927 0.27194-16.729-0.0192-17.228-1.3193zm42.218-15.592 0.34778-17.188 16.562-0.34879 16.562-0.34877v17.536 17.536h-16.91-16.91l0.34777-17.188zm42.22-0.31v-17.5h16.875 16.875v17.5 17.5h-16.875-16.875v-17.5zm84.309 15.905c-0.3521-0.91756-0.48138-8.6684-0.28726-17.224l0.35292-15.556h16.875 16.875v16.875 16.875l-16.588 0.34896c-12.927 0.27194-16.729-0.0192-17.228-1.3193zm126.94-15.94v-17.536l16.562 0.34877 16.562 0.34879 0.34777 17.188 0.34778 17.188h-16.91-16.91v-17.536zm141.25 0.0362v-17.5h18.75 18.75v17.5 17.5h-18.75-18.75v-17.5zm-453-33.1c3.1144-4.4552 6.1893-8.4258 6.8331-8.8238 0.68529-0.42353 1.1706 2.9349 1.1706 8.1003v8.8238h-6.8331-6.8331l5.6625-8.1003zm58-8.78v-16.875h16.875 16.875v16.875 16.875h-16.875-16.875v-16.875zm42.5 0v-16.875h16.875 16.875v16.875 16.875h-16.875-16.875v-16.875zm301.25-0.625v-17.5h18.75 18.75v17.5 17.5h-18.75-18.75v-17.5zm-371.25-25.48c0-0.56026 16.112-13.684 18.438-15.018 1.1823-0.67823 1.5625 1.0987 1.5625 7.3024v8.1988h-10c-5.5 0-10-0.21743-10-0.48318zm70-16.392v-16.875h16.875 16.875v16.875 16.875h-16.875-16.875v-16.875zm42.5 0v-16.875h16.875 16.875v16.875 16.875h-16.875-16.875v-16.875zm-41.808-25.568c1.0747-1.0747 29.075-8.8075 31.892-8.8075 0.64104 0 1.1655 2.25 1.1655 5v5h-17.125c-10.866 0-16.689-0.43584-15.932-1.1925zm41.81-4.28c0-5.125 0.24554-5.5179 3.9062-6.25 2.1484-0.42969 9.7422-0.78125 16.875-0.78125h12.969v6.25 6.25h-16.875-16.875v-5.4688zm42.118 4.67c-1.2207-1.2207-1.0851-10.169 0.16575-10.943 1.0683-0.66026 22.962 2.3399 29.591 4.055 2.8751 0.74382 3.75 1.6807 3.75 4.0157v3.0455l-16.32 0.34709c-8.9758 0.1909-16.71-0.0435-17.188-0.52083z" fill="#666766"/>
 <path id="path3399" d="m266.25 531.37c-7.7205-0.70953-8.1447-0.91785-8.5205-4.1842l-0.39552-3.4375h17.037 17.037l-0.3917 4.0625-0.3917 4.0625-8.125 0.12175c-4.4688 0.0669-11.781-0.21431-16.25-0.625zm-32.5-5.1217-8.125-2.2582 11.562-0.12087c10.769-0.11262 11.562 0.0506 11.562 2.3791 0 3.1468-3.6779 3.1468-15 0zm-38.394-13.697c-2.8978-1.3155-9.2259-4.703-14.062-7.5277l-8.7938-5.1359v-9.3199-9.3199h16.875 16.875v16.875c0 16.675-0.0334 16.875-2.8125 16.848-1.5469-0.0151-5.1834-1.1038-8.0812-2.4192zm19.64-14.43v-16.875h16.875 16.875v16.875 16.875h-16.875-16.875v-16.875zm42.5 0.0362v-16.911h16.911 16.911l-0.34877 16.562-0.34879 16.562-16.562 0.34879-16.562 0.34878v-16.911zm-101.88-10.492-7.5-5.7946 7.3292-0.37911c4.0311-0.2085 7.58-0.12834 7.8865 0.17815 0.30649 0.30649 0.38334 3.0847 0.17077 6.1737l-0.38647 5.6165-7.5-5.7946zm59.38-32.05v-16.875h16.875 16.875v16.875 16.875h-16.875-16.875v-16.875zm85 0v-16.875h16.25 16.25v16.875 16.875h-16.25-16.25v-16.875zm83.75-0.0362v-16.911l16.562 0.34877 16.562 0.34879 0.34879 16.562 0.34877 16.562h-16.911-16.911v-16.911zm133.37 12.361c-0.4764-0.47644-0.86619-8.3812-0.86619-17.566v-16.7l18.438 0.34593 18.438 0.34591v16.875 16.875l-17.571 0.34535c-9.6642 0.18994-17.961-0.0445-18.438-0.52084zm-400.6-21.587-5.3556-7.6122h5.0823c5.8963 0 6.5618 1.0325 6.0161 9.3335l-0.38727 5.8909-5.3556-7.6122zm-11.355-18.04c-1.7516-2.1106-13.914-28.006-13.914-29.624 0-0.70057 6.4906-1.1984 15.625-1.1984h15.625v16.25 16.25h-7.9719c-5.1436 0-8.4658-0.59509-9.364-1.6773zm26.09-14.56v-16.25h16.25 16.25v16.25 16.25h-16.25-16.25v-16.25zm41.25 0v-16.25h16.875 16.875v16.25 16.25h-16.875-16.875v-16.25zm211.25 0v-16.25h16.875 16.875v16.25 16.25h-16.875-16.875v-16.25zm42.5 0v-16.25l16.562-0.002 16.562-0.002-0.38199 16.252-0.382 16.253h-16.18-16.181v-16.25zm141.66-168.44 0.21-17.19 18.44-0.34 18.44-0.35v17.533 17.533h-18.655-18.655l0.21797-17.188zm-477.91 15.28c0-1.0968 6.2779-15.68 10.342-24.025l3.8052-7.8125h9.1762 9.1762v16.25 16.25h-16.25c-8.9375 0-16.25-0.2982-16.25-0.66266zm41.25-15.59v-16.25h16.25 16.25v16.25 16.25h-16.25-16.25v-16.25zm41.25 0v-16.25h16.875 16.875v16.25 16.25h-16.875-16.875v-16.25zm42.5 0v-16.25h16.875 16.875v16.25 16.25h-16.875-16.875v-16.25zm85 0v-16.25h16.25 16.25v16.25 16.25h-16.25-16.25v-16.25zm126.25 0v-16.25h16.181 16.18l0.382 16.252 0.38199 16.252-16.562-0.002-16.562-0.002v-16.25zm-315.48-26.56c2.0822-3.55 10.603-15.938 10.963-15.938 0.21392 0 0.50393 3.9375 0.64445 8.75l0.25549 8.75h-6.3898c-4.7673 0-6.1571-0.39675-5.4733-1.5625zm62.007-15 0.34879-16.562 16.562-0.34879 16.562-0.34877v16.911 16.911h-16.911-16.911l0.34877-16.562zm42.22-0.32v-16.875h16.875 16.875v16.875 16.875h-16.875-16.875v-16.875zm301.25 0v-16.875h18.672 18.672v16.875 16.875h-18.672-18.672v-16.875zm-366.57-29.77c2.5801-2.2824 6.8005-5.7242 9.3786-7.6484l4.6875-3.4985v7.6484 7.6484h-9.3786-9.3786l4.6911-4.1499zm65.592-12.413 0.34879-16.562 16.562-0.34879 16.562-0.34877v16.911 16.911h-16.911-16.911l0.34877-16.562zm42.224-0.34879v-16.911l16.562 0.34877 16.562 0.34879 0.34879 16.562 0.34877 16.562h-16.911-16.911v-16.911zm-35-27.59c3.0938-1.009 10.266-2.8844 15.938-4.1677l10.312-2.3332v4.2513 4.2513l-15.938-0.0836c-15.782-0.0828-15.883-0.1015-10.312-1.9181zm35-2.8176v-4.8192l8.4375-0.79687c4.6406-0.43828 12.234-0.80087 16.875-0.80575l8.4375-0.009v5.625 5.625h-16.875-16.875v-4.8192zm42.51-0.18c0-4.8207 0.14566-4.9977 4.0625-4.9365 2.2344 0.035 9.4062 1.0193 15.938 2.1875 10.601 1.8961 11.918 2.4257 12.274 4.9365 0.39675 2.7936 0.28952 2.8125-15.938 2.8125h-16.34v-5z" fill="#0a0c0b"/>
</svg>
